<svg xmlns="http://www.w3.org/2000/svg" xmlns:xlink="http://www.w3.org/1999/xlink" id="Layer_1" x="0" y="0" version="1.1" viewBox="0 0 2000 2000" style="enable-background:new 0 0 2000 2000" xml:space="preserve"><style type="text/css">.st0{fill:#1e88e5}.st1{fill:#90caf9}.st2{fill:#42a5f5}</style><polygon points="1258.2 356.9 386.7 1866.4 131.2 1866.4 129.4 1865.4 1000.3 356.9" class="st0"/><polygon points="1615.1 1866.1 743.6 356.7 871.3 135.3 873.1 134.3 1744 1642.8" class="st1"/><polygon points="1999.3 1642.5 256.3 1642.5 128.5 1863.8 128.5 1865.8 1870.3 1865.8" class="st0"/><polygon points="1999.9 1643.1 1128.4 133.6 872.9 133.6 871.2 134.6 1742.1 1643.1" class="st2"/><polygon points="2000 1642.5 257 1642.5 129.2 1421.2 129.2 1419.2 1871.1 1419.2" class="st2"/><polygon points="871.5 133.6 0 1643.1 127.8 1864.4 129.5 1865.4 1000.4 356.9" class="st1"/><polygon points="918.4 944.5 422.1 1804.1 194.1 1756.4 192.3 1755.4 688.3 896.4" class="st0"/></svg>